<svg width="26" height="26" viewBox="0 0 26 26" fill="none" xmlns="http://www.w3.org/2000/svg">
<path d="M10.9327 14.7226H1.24361C0.812309 14.7226 0.462265 15.0726 0.462265 15.5039V25.1942C0.462265 25.6255 0.812309 25.9755 1.24361 25.9755H10.9327C11.364 25.9755 11.7141 25.6255 11.7141 25.1942V15.5039C11.7141 15.0726 11.364 14.7226 10.9327 14.7226ZM10.1514 24.4128H2.02496V16.2853H10.1514V24.4128V24.4128Z" fill="white"/>
<path d="M11.7141 1.75376C11.7141 1.32246 11.364 0.972412 10.9327 0.972412H1.24361C0.812309 0.972412 0.462265 1.32246 0.462265 1.75376V11.4432C0.462265 11.8745 0.812309 12.2246 1.24361 12.2246H10.9327C11.364 12.2246 11.7141 11.8745 11.7141 11.4432V1.75376V1.75376ZM10.1514 10.6619H2.02496V2.53511H10.1514V10.6619V10.6619Z" fill="white"/>
<path d="M25.4623 1.75376C25.4623 1.32246 25.1122 0.972412 24.6809 0.972412H14.9918C14.5605 0.972412 14.2105 1.32246 14.2105 1.75376V11.4432C14.2105 11.8745 14.5605 12.2246 14.9918 12.2246H24.6809C25.1122 12.2246 25.4623 11.8745 25.4623 11.4432V1.75376ZM23.8996 10.6619H15.7732V2.53511H23.8996V10.6619Z" fill="white"/>
<path d="M24.6809 14.7226H14.9918C14.5605 14.7226 14.2105 15.0726 14.2105 15.5039V25.1942C14.2105 25.6255 14.5605 25.9755 14.9918 25.9755H24.6809C25.1122 25.9755 25.4623 25.6255 25.4623 25.1942V15.5039C25.4623 15.0726 25.1126 14.7226 24.6809 14.7226ZM23.8996 24.4128H15.7732V16.2853H23.8996V24.4128Z" fill="white"/>
</svg>
