<svg width="27" height="26" viewBox="0 0 27 26" fill="none" xmlns="http://www.w3.org/2000/svg">
<path d="M25.1383 10.388H1.76168C1.04448 10.388 0.462982 10.8072 0.462982 11.5244V15.2581C0.462982 15.9753 1.04448 16.5568 1.76168 16.5568H25.1383C25.8555 16.5568 26.437 15.9753 26.437 15.2581V11.5244C26.437 10.8072 25.8555 10.388 25.1383 10.388ZM25.1383 15.2581H1.76168V11.6867H25.1383V15.2581ZM25.1383 0.972412H1.76168C1.04448 0.972412 0.462982 1.39157 0.462982 2.10878V5.84254C0.462982 6.55975 1.04448 7.14124 1.76168 7.14124H25.1383C25.8555 7.14124 26.437 6.55975 26.437 5.84254V2.10878C26.437 1.39157 25.8555 0.972412 25.1383 0.972412ZM25.1383 5.84254H1.76168V2.27111H25.1383V5.84254ZM25.1383 19.8036H1.76168C1.04448 19.8036 0.462982 20.2227 0.462982 20.9399V24.6737C0.462982 25.3909 1.04448 25.9724 1.76168 25.9724H25.1383C25.8555 25.9724 26.437 25.3909 26.437 24.6737V20.9399C26.437 20.2227 25.8555 19.8036 25.1383 19.8036ZM25.1383 24.6737H1.76168V21.1023H25.1383V24.6737Z" fill="white"/>
</svg>
